<svg id="Layer_4" data-name="Layer 4" xmlns="http://www.w3.org/2000/svg" viewBox="0 0 1955.05 557.29"><defs><style>.cls-1{fill:#ff1451;}.cls-2{fill:#262e49;}.cls-3,.cls-5{fill:#eceff4;}.cls-4{fill:#ff1350;}.cls-5{font-size:85px;font-family:TitilliumWeb-Regular, Titillium Web;}.cls-6{letter-spacing:0em;}.cls-7{letter-spacing:0em;}.cls-8{letter-spacing:-0.01em;}</style></defs><circle class="cls-1" cx="278.64" cy="278.64" r="278.64"/><circle class="cls-2" cx="278.64" cy="278.64" r="237.34"/><path class="cls-3" d="M143.79,222.58a5.66,5.66,0,0,0-4.88,4.17L97,384.38,79.57,450.23a1.84,1.84,0,0,0,3.13,1.71L144,385.42a25.35,25.35,0,0,1,15.2-8l97.32-10.79L300,206.43Z"/><path class="cls-3" d="M413.34,203.59,402,245.53a3.08,3.08,0,0,1-2.64,2.26l-46.82,5a3.07,3.07,0,0,1-3.29-3.84l11.92-44.33a3.21,3.21,0,0,0-3.44-4l-48.7,5L266.17,365.69,317.34,360a3.21,3.21,0,0,0,2.76-2.37l13-48.35a4.3,4.3,0,0,1,3.69-3.15l50.44-5.47h-.05l39.31,36a1.84,1.84,0,0,0,3-.88L469.14,189l17.44-64.43a1.84,1.84,0,0,0-3.11-1.74L422.23,187.7A37.24,37.24,0,0,0,413.34,203.59Z"/><path class="cls-4" d="M374.74,356.52,424,351.06a1.94,1.94,0,0,0,1.11-3.35L386.9,312.07a1.94,1.94,0,0,0-3.2.92l-11.05,41.1A1.94,1.94,0,0,0,374.74,356.52Z"/><path class="cls-2" d="M220.47,317.45,173.61,322a5,5,0,0,1-5.24-6.24l12-43.53a5,5,0,0,1,4.31-3.61l46.85-4.41a5,5,0,0,1,5.24,6.24l-12,43.41A4.92,4.92,0,0,1,220.47,317.45Z"/><g id="w0V6rf.tif"><path class="cls-3" d="M1483.7,242.81c-2-.1-3.33-.23-4.69-.23-31,0-62,.08-93-.1-4.19,0-5.13,1.25-5.1,5.23.16,26.5.09,53,.08,79.51,0,6.15-.55,6.71-6.54,6.73q-11.12,0-22.22,0c-6.13,0-6.67-.54-6.67-6.59q0-37.91,0-75.81V129c0-6.67.35-7,7-7q10.88,0,21.76,0c6.18,0,6.62.48,6.63,6.54,0,25.74.14,51.47-.11,77.21,0,4.76,1.28,5.89,5.93,5.86,30.39-.21,60.8-.11,91.2-.11h5.74v-5.68q0-38.59,0-77.2c0-6,.57-6.58,6.66-6.62q11.1-.06,22.22,0c6.35,0,6.86.56,6.86,6.9q0,71.43,0,142.85,0,27.74,0,55.47c0,5.88-.85,6.72-6.65,6.74-7.56,0-15.12,0-22.69,0-5.49,0-6.4-.92-6.4-6.49q0-39.75,0-79.51Z"/><path class="cls-3" d="M806.73,256V326.6c0,7.34,0,7.35-7.58,7.35q-10.65,0-21.29,0c-6.29,0-6.57-.29-6.57-6.49q0-74.4,0-148.8c0-16.48.14-33-.09-49.44-.07-4.47,1.29-6.49,5.84-6.7,32.2-1.46,64.4-3.58,96.58-.06A90.36,90.36,0,0,1,892,126.65c15.24,5.07,24.61,15.71,28.49,31.3,4.74,19,4.81,38.19,1.38,57.29-4.19,23.39-17.09,35.77-41.66,38-22.06,2-44.32,1.94-66.49,2.77C811.63,256.11,809.5,256,806.73,256Zm.23-28.69c13.64,0,26.74.24,39.82-.1a160.1,160.1,0,0,0,22.51-2.12c9.25-1.57,15.07-7.36,17.06-16.62a83.78,83.78,0,0,0-.14-36.65c-2.1-9.24-8-15-17.14-17.55a33.08,33.08,0,0,0-7.68-1.52c-17.57-.52-35.14-.88-52.7-1.26a5.82,5.82,0,0,0-1.73.59Z"/><path class="cls-3" d="M1272.41,304.79v-6.26q0-55.47,0-110.94c0-6.35.52-6.89,6.8-6.91,7,0,13.89.09,20.83,0,4.12-.07,5.74,1.59,5.73,5.8-.1,48.38.18,96.76-.31,145.14a120.2,120.2,0,0,1-4.62,31.36c-4.57,16.06-17.37,23.07-33.07,25.59-21.35,3.41-42.74,2.3-64.13.51-3.22-.27-6.42-.84-9.64-1.19-3.67-.4-4.91-2.56-4.81-6,.12-4.31.19-8.64,0-12.94s1.68-6,6-6c16,.08,32.1.12,48.14-.16a73,73,0,0,0,14.61-2,16,16,0,0,0,12.72-12.65c1.08-4.72,1.46-9.6,2.26-15.09-5.53.56-10.07,1.43-14.6,1.4-14.93-.11-30,.9-44.72-1.17-24.64-3.49-36.35-16.66-39.16-41.4a330.54,330.54,0,0,1-2-33.15c-.28-23.73-.09-47.46-.08-71.19,0-6.25.53-6.77,6.92-6.79s13,0,19.44,0,6.94.61,6.94,6.8c0,23.11-.16,46.23.08,69.34a261.89,261.89,0,0,0,1.78,26.69c1.53,13.48,8.73,20.44,22.11,21.84a124.74,124.74,0,0,0,15.7.71C1254.15,305.87,1262.92,305.26,1272.41,304.79Z"/><path class="cls-3" d="M1912.38,180.58V134.5c0-13.53-1.18-12.21,12.1-12.23,4.94,0,9.87,0,14.81,0,6,0,6.42.45,6.43,6.26q0,21.5,0,43,0,75.12,0,150.24c0,7-.5,7.87-7.15,8.87-27.53,4.15-55.16,6.54-82.94,2.75-24.92-3.4-36.29-16.18-39.86-39.81-3.91-25.88-4.18-51.92,1.13-77.69,4.52-21.9,17.49-33.71,39.87-35.1,17-1.06,34.18-.21,51.28-.21Zm-.15,28.4c-14,0-27.72-.54-41.35.15-13.84.7-20.53,7.25-22.54,21.11a191.47,191.47,0,0,0,.29,56.56c1.44,9.39,6.75,15.71,16.36,17.73a73.89,73.89,0,0,0,10,1.45c12.46.92,24.8-.14,37.21-1.88Z"/><path class="cls-3" d="M1642.87,245.18c0-6.93.5-13.12-.11-19.2-.92-9.18-7.76-15.07-18.81-16.71a103.31,103.31,0,0,0-14.28-1q-21-.18-42.1,0c-3.92,0-5.66-1.28-5.44-5.37a106.68,106.68,0,0,0,0-13.85c-.34-4.47,1.87-6.1,5.78-6.54,7.19-.8,14.37-2,21.59-2.37,17.55-.94,35.13-1.71,52.51,2.06,23.44,5.08,34.49,18.31,34.62,42.08.17,31.72.06,63.45,0,95.17,0,6.8-1.72,9.31-8.53,10.46-10.92,1.84-21.91,3.74-32.94,4.42-18.14,1.13-36.34,1.91-54.43-1.23-16-2.78-26.12-11.5-29.08-27.88-2.16-12-2.21-23.83,1.27-35.62,3.1-10.5,10.21-17.31,20.24-20.46a84.76,84.76,0,0,1,21.75-3.68c14.17-.6,28.37-.26,42.56-.3C1639.14,245.17,1640.8,245.18,1642.87,245.18Zm.27,24.21c-15.23,0-29.86-.6-44.42.2-10.76.59-15.22,6.62-15.37,17.56-.15,11.9,4,17.5,14.77,19.19,14,2.18,28,1.21,41.84-1.24a4.82,4.82,0,0,0,3-3.46C1643.24,291.05,1643.14,280.44,1643.14,269.39Z"/><path class="cls-3" d="M1104.82,245.18c0-7.32.68-14-.17-20.45-1.14-8.65-8.18-14.11-18.89-15.49a144.88,144.88,0,0,0-17.06-1c-12.8-.14-25.61,0-38.41-.05-5.58,0-6-.45-6-6.12,0-4.31.26-8.65-.08-12.93-.35-4.44,1.83-6.17,5.75-6.63,7.35-.84,14.68-2.06,22.06-2.43,17.55-.87,35.13-1.63,52.52,2.17,23,5,34.25,18.75,34.3,42.41q.09,46.91,0,93.8c0,7.93-1.67,10-9.41,11.7-20.17,4.36-40.65,5.27-61.18,4.87a185.35,185.35,0,0,1-26.21-2.2c-15.39-2.53-25.1-11.36-28.11-27.15-2.3-12-2.35-23.81,1-35.63,3.09-10.87,10.35-17.9,20.81-21a89.1,89.1,0,0,1,21.77-3.58c14-.57,28.06-.24,42.1-.28C1101.31,245.17,1103,245.18,1104.82,245.18Zm.61,24.16c-15.22,0-29.72-.52-44.17.17-10.58.5-15.5,6.54-15.78,16.81-.33,12.48,3.83,18.32,14.93,20,14,2.16,28,1.18,41.87-1.26,1.19-.21,3-2,3-3C1105.52,291.29,1105.43,280.53,1105.43,269.34Z"/><path class="cls-3" d="M951.42,227.67v-98c0-7.44.27-7.7,7.9-7.72,6.63,0,13.26.12,19.89,0,4.17-.1,5.81,1.65,5.75,5.78-.14,10.16,0,20.33,0,30.49V326c0,7.69-.33,8-8.11,8-6.33,0-12.65,0-19,0-5.52,0-6.4-.9-6.4-6.47Q951.4,277.57,951.42,227.67Z"/><path class="cls-3" d="M1711.06,269c0-18-.34-36.06.19-54.07a52.8,52.8,0,0,1,4.07-18.68c3.61-8.51,11.32-12.81,20.18-14.64,18.09-3.72,36.2-2.33,54.27.34,4.53.67,6.69,3.17,6.39,7.94-.27,4.3-.13,8.62,0,12.94.09,3.91-1.67,5.44-5.61,5.46-10.79,0-21.59.1-32.36.7-10.55.59-13.65,4.27-13.66,15q0,51.07,0,102.15c0,7.4-.39,7.78-7.88,7.78-6.48,0-13,0-19.44,0-5.36,0-6.08-.74-6.09-6.23Q1711,298.36,1711.06,269Z"/></g><text class="cls-5" transform="translate(1343.83 429.75)">I<tspan class="cls-6" x="20.91" y="0">n</tspan><tspan class="cls-7" x="66.3" y="0">ternal Finan</tspan><tspan class="cls-8" x="492.22" y="0">c</tspan><tspan class="cls-7" x="528.77" y="0">es</tspan></text></svg>